<svg width="17" height="16" viewBox="0 0 17 16" fill="none" xmlns="http://www.w3.org/2000/svg">
<path d="M15.6356 14.7743H0.570297C0.261386 14.7743 0 15.0356 0 15.3446C0 15.6535 0.261386 15.9149 0.570297 15.9149H15.6356C15.9446 15.9149 16.2059 15.6535 16.2059 15.3446C16.2059 15.0356 15.9446 14.7743 15.6356 14.7743ZM0.0237625 9.78416L0 12.4693C0 12.6119 0.0475249 12.7782 0.166337 12.8733C0.285149 12.9683 0.427723 13.0396 0.570297 13.0396L3.25545 13.0158C3.39802 13.0158 3.54059 12.9446 3.65941 12.8495L12.8792 3.6297C13.0931 3.41584 13.0931 3.03564 12.8792 2.82178L10.2178 0.160396C10.004 -0.0534654 9.62376 -0.0534654 9.4099 0.160396L7.55644 2.01386L0.190099 9.3802C0.0712874 9.49901 0.0237625 9.64158 0.0237625 9.78416ZM11.6673 3.22574L10.6218 4.27129L8.76832 2.41782L9.81386 1.37228L11.6673 3.22574ZM1.16436 10.0218L7.9604 3.22574L9.81386 5.07921L3.01782 11.8752H1.16436V10.0218Z" fill="#06004F"/>
</svg>
