<svg width="68" height="24" viewBox="0 0 68 24" fill="none" xmlns="http://www.w3.org/2000/svg">
<path d="M0.75 19.9974V16.2974H8.22654V1.25067C8.22654 1.25067 12.4521 0.12458 14.8362 1.25067C16.3449 1.96325 17.3443 2.59066 18.1953 4.08734C20.2989 7.78734 19.3819 11.2558 16.7866 13.584C14.3938 15.7307 8.98503 13.584 8.98503 13.584" stroke="#004182" stroke-width="1.5" stroke-linecap="round"/>
<path d="M11.3688 14.324L16.2698 22.7107L19.9289 18.5174" stroke="#004182" stroke-width="1.5" stroke-linecap="round"/>
<path d="M26.2137 7.92068C27.3597 7.92074 28.4809 8.60026 29.3485 9.8699C30.2135 11.1358 30.7732 12.926 30.7733 14.9402C30.7733 16.9546 30.2136 18.7455 29.3485 20.0115C28.4809 21.2812 27.3597 21.9607 26.2137 21.9607C25.0678 21.9607 23.9466 21.2812 23.079 20.0115C22.2139 18.7455 21.6542 16.9546 21.6542 14.9402C21.6543 12.926 22.2139 11.1358 23.079 9.8699C23.9466 8.60022 25.0678 7.92068 26.2137 7.92068Z" stroke="#004182" stroke-width="1.5"/>
<path d="M33.2325 7.664C33.2325 7.664 32.7992 14.324 33.2325 17.5307C33.6658 20.7374 35.1828 21.8474 35.833 22.2174C36.4832 22.5874 39.3003 23.204 40.709 22.2174C42.1177 21.2307 42.8762 19.9974 43.3096 17.5307C43.743 15.064 43.3096 7.664 43.3096 7.664" stroke="#004182" stroke-width="1.5" stroke-linecap="round"/>
<path d="M46.0097 0.757355C46.0097 0.757355 45.9014 18.3941 46.0097 19.1341C46.118 19.8741 47.4184 21.2307 47.8517 21.6007C48.2851 21.9707 49.2451 22.6045 50.2356 22.5874C51.1864 22.5709 51.7428 22.2386 52.511 21.6007C53.3657 20.8911 53.7579 20.2585 54.1364 19.1341C54.368 18.446 54.4427 18.0205 54.4614 17.2841" stroke="#004182" stroke-width="1.5" stroke-linecap="round"/>
<path d="M46.2866 7.91068H54.63" stroke="#004182" stroke-width="1.5" stroke-linecap="round"/>
<path d="M66.7495 17.7294C66.7495 17.7294 66.1212 19.9362 65.2325 20.936C64.4374 21.8306 63.8402 22.311 62.7403 22.5394C61.7335 22.7484 61.0862 22.6129 60.1398 22.1694C59.4344 21.8388 59.061 21.5418 58.5145 20.936C57.6193 19.9437 57.3386 19.0976 56.9975 17.7294C56.7303 16.6575 56.7305 14.8927 56.7305 14.8927M56.7305 14.8927C56.7305 14.8927 56.6981 14.1454 56.7305 13.906C56.9975 11.9327 58.2977 9.836 58.2977 9.836C58.2977 9.836 59.0563 8.58242 60.1398 8.23267C60.9133 7.983 61.9528 7.80187 62.7403 7.986C63.8157 8.23741 64.4232 8.62183 65.2325 9.466C65.7743 10.0311 66.2505 10.8418 66.5328 12.056C66.7709 13.0804 66.7495 14.8927 66.7495 14.8927H56.7305Z" stroke="#004182" stroke-width="1.5" stroke-linecap="round"/>
</svg>
